:SAMPLES-PER-SECOND 30
:FULLY-SPECIFIED
:DEGREES
261
root  -16.9649 34.8442 -13.3851 -172.97 -2.13084 179.16
RightUpLeg  -6.46999 -17.3849 -1.67368
RightLeg  3.74635 -5.32625 -0.00427081
RightFoot  6.16466 0.0451164 -0.390068
RightToes  -27.4089 -0.126427 -0.233511
Spine  -1.76906 0.253491 -0.332374
Spine1  -3.4736 0.693874 -0.00822641
HEad  -59.1391 -2.34403 8.70743
LeftShoulder1  -1.94126e-019 -3.10601e-018 -2.51263e-017
LeftArm  1.62607 7.86759 -75.8027
LeftForeArm  27.3767 -42.4886 -8.45929
LeftHand  -0.720995 -3.6395 9.52065
RightShoulder  -4.96962e-017 0 -2.36833e-017
RightArm  -25.7167 -2.74413 78.7452
RightForeArm  51.2127 18.9863 2.03929
RightHand  -0.30627 -3.46979 -17.9878
LeftUpLeg  -6.91278 -2.42151 3.63926
LeftLeg  3.75783 12.7123 0.0162103
LeftFoot  8.48228 -0.14218 2.07865
LeftToes  -23.4268 1.7763e-006 6.54387e-008
262
root  -17.0048 34.7633 -13.4619 -172.892 -1.61263 179.203
RightUpLeg  -7.23207 -17.368 -1.70898
RightLeg  5.20975 -4.83918 -0.127155
RightFoot  5.46684 0.0360404 -0.269215
RightToes  -27.9116 -0.128401 -0.235666
Spine  -1.74282 0.563858 -0.228026
Spine1  -3.538 1.4463 0.0500618
HEad  -59.0795 -2.36131 8.93526
LeftShoulder1  -1.94126e-019 -3.10601e-018 -2.51263e-017
LeftArm  -8.42971 6.35108 -78.6985
LeftForeArm  31.1751 -22.5208 -4.14506
LeftHand  -0.646564 -2.68818 9.51041
RightShoulder  -4.96962e-017 0 -2.36833e-017
RightArm  -48.1338 -3.77914 76.1918
RightForeArm  60.5095 3.49572 0.607474
RightHand  0.940168 -10.3872 -21.9301
LeftUpLeg  -7.582 -2.05169 3.59738
LeftLeg  5.45695 12.8413 0.393895
LeftFoot  7.41322 -0.1092 1.84706
LeftToes  -23.384 1.7763e-006 6.54387e-008
263
root  -17.0496 34.7008 -13.523 -172.689 -1.16707 179.232
RightUpLeg  -7.92997 -17.1215 -1.72166
RightLeg  6.26995 -4.66292 -0.208737
RightFoot  4.90475 0.0317729 -0.22021
RightToes  -27.9094 -0.129793 -0.237176
Spine  -1.65866 0.670572 -0.255602
Spine1  -3.40871 1.58668 -0.0415067
HEad  -60.1798 -2.44944 10.1061
LeftShoulder1  -1.94126e-019 -3.10601e-018 -2.51263e-017
LeftArm  -13.8095 5.90194 -78.5839
LeftForeArm  33.3213 -8.31778 -1.45131
LeftHand  -0.538288 0.640214 13.1792
RightShoulder  -4.96962e-017 0 -2.36833e-017
RightArm  -54.0672 -9.58245 73.6619
RightForeArm  63.8397 0.270394 0.0534417
RightHand  1.71275 -14.8499 -20.9711
LeftUpLeg  -8.29043 -2.07171 3.54535
LeftLeg  6.90662 13.293 0.741276
LeftFoot  6.52272 -0.0863296 1.67647
LeftToes  -23.181 1.7763e-006 6.54387e-008
264
root  -17.107 34.6524 -13.591 -172.246 -1.17677 179.177
RightUpLeg  -8.69653 -17.4599 -1.7627
RightLeg  7.12434 -4.32517 -0.258182
RightFoot  4.45611 0.0285757 -0.182864
RightToes  -27.8523 -0.130713 -0.238188
Spine  -1.569 0.320904 -0.24624
Spine1  -3.21505 0.73779 -0.00164577
HEad  -62.5208 -1.92582 12.0034
LeftShoulder1  -1.94126e-019 -3.10601e-018 -2.51263e-017
LeftArm  -12.471 9.37662 -77.1082
LeftForeArm  26.4015 -3.05386 -0.5309
LeftHand  -0.215174 4.04218 17.8715
RightShoulder  -4.96962e-017 0 -2.36833e-017
RightArm  -49.792 -16.1482 72.4299
RightForeArm  70.3797 1.45865 0.211354
RightHand  0.606152 -10.0808 -15.5709
LeftUpLeg  -9.26757 -2.54213 3.42533
LeftLeg  8.27024 13.7491 1.0916
LeftFoot  5.79865 -0.0691299 1.52645
LeftToes  -22.7007 1.7763e-006 6.54387e-008
265
root  -17.1586 34.5583 -13.6368 -171.476 -1.47598 179.109
RightUpLeg  -10.269 -17.778 -1.69003
RightLeg  8.9461 -4.30786 -0.394823
RightFoot  3.56447 0.025466 -0.143358
RightToes  -27.9821 -0.131584 -0.239151
Spine  -1.67299 -0.28079 -0.193781
Spine1  -3.3825 -0.688794 0.1713
HEad  -65.2694 -1.24927 13.0253
LeftShoulder1  -1.94126e-019 -3.10601e-018 -2.51263e-017
LeftArm  -19.5682 14.5633 -75.5126
LeftForeArm  26.1156 1.54426 0.260414
LeftHand  -0.00751466 5.39066 20.0928
RightShoulder  -4.96962e-017 0 -2.36833e-017
RightArm  -31.071 -24.6068 71.3069
RightForeArm  65.2555 7.67568 1.29923
RightHand  -0.17369 -3.76995 -11.5386
LeftUpLeg  -11.1232 -2.86876 3.34845
LeftLeg  10.58 13.7628 1.64715
LeftFoot  4.69326 -0.0464989 1.22057
LeftToes  -22.346 1.7763e-006 6.54387e-008
